<?xml version="1.0" encoding="UTF-8"?>
<svg xmlns="http://www.w3.org/2000/svg" version="1.1" xmlns:xlink="http://www.w3.org/1999/xlink" viewBox="76 62 209 237">
  <defs>
    <style>
      .cls-1 {
        clip-path: url(#clippath-6);
      }

      .cls-2 {
        clip-path: url(#clippath-7);
      }

      .cls-3 {
        clip-path: url(#clippath-9);
      }

      .cls-4 {
        fill: #2e2d2c;
      }

      .cls-5 {
        fill: none;
      }

      .cls-6 {
        fill: url(#Degradado_sin_nombre_4);
      }

      .cls-7 {
        clip-path: url(#clippath-1);
      }

      .cls-8 {
        opacity: .42;
      }

      .cls-9 {
        fill: url(#Degradado_sin_nombre_2);
      }

      .cls-10 {
        fill: url(#Degradado_sin_nombre_10-2);
      }

      .cls-11 {
        clip-path: url(#clippath-8);
      }

      .cls-12 {
        fill: url(#Degradado_sin_nombre_9);
      }

      .cls-13 {
        clip-path: url(#clippath-3);
      }

      .cls-14 {
        fill: url(#Degradado_sin_nombre_7);
      }

      .cls-15 {
        fill: url(#Degradado_sin_nombre_10);
      }

      .cls-16 {
        fill: url(#Degradado_sin_nombre_7-2);
      }

      .cls-17 {
        clip-path: url(#clippath);
      }
    </style>
    <clipPath id="clippath">
      <path class="cls-5" d="M180.49,216.64c-13.14,0-23.61-5.48-31.13-16.27l-21.7-32.61,3.9-2.6,21.67,32.57c6.65,9.56,15.57,14.23,27.25,14.23s21.89-5.73,28.09-15.31l40.85-61.27,3.9,2.6-40.83,61.25c-7.04,10.9-19.01,17.42-32,17.42Z"/>
    </clipPath>
    <linearGradient id="Degradado_sin_nombre_4" data-name="Degradado sin nombre 4" x1="36.93" y1="59.22" x2="232.89" y2="59.22" gradientTransform="translate(98.3 6.76) rotate(32.74)" gradientUnits="userSpaceOnUse">
      <stop offset="0" stop-color="#00efff"/>
      <stop offset="1" stop-color="#4857ff"/>
    </linearGradient>
    <clipPath id="clippath-1">
      <path class="cls-5" d="M180.49,216.64c-13.14,0-23.61-5.48-31.13-16.27l-21.7-32.61,3.9-2.6,21.67,32.57c6.65,9.56,15.57,14.23,27.25,14.23s21.89-5.73,28.09-15.31l40.85-61.27,3.9,2.6-40.83,61.25c-7.04,10.9-19.01,17.42-32,17.42Z"/>
    </clipPath>
    <radialGradient id="Degradado_sin_nombre_7" data-name="Degradado sin nombre 7" cx="-152.38" cy="595.04" fx="-152.38" fy="595.04" r="42.12" gradientTransform="translate(299.58 -689.44) rotate(-6.61) scale(1.54 1.47)" gradientUnits="userSpaceOnUse">
      <stop offset="0" stop-color="#45f"/>
      <stop offset="1" stop-color="#4857ff" stop-opacity="0"/>
    </radialGradient>
    <clipPath id="clippath-3">
      <path class="cls-5" d="M267.07,97.03c-2.02-9.97-7.8-18.56-16.29-24.18-8.48-5.62-18.64-7.61-28.61-5.58-9.97,2.02-18.56,7.8-24.18,16.27l-17.09,25.39-17.95-25.5s-.02-.03-.03-.04c-5.65-8.44-14.25-14.17-24.21-16.16-9.98-1.99-20.14.04-28.6,5.69-8.46,5.65-14.21,14.26-16.2,24.25s.04,20.14,5.69,28.6l28.97,43.35c6.37,9.52,18.01,15.63,29.76,15.63h.39c11.55-.13,21.6-6.03,28.33-16.6l33.69-51.79c2.54-3.83,6.41-6.45,10.92-7.35,4.51-.92,9.09-.02,12.92,2.52,3.83,2.54,6.45,6.41,7.35,10.92.91,4.49.02,9.07-2.5,12.9l-.02.02,3.91,2.59h0l8.16-12.31c5.62-8.48,7.61-18.64,5.58-28.61ZM159.05,86.03l19.05,27.06-1.24,1.84c-4.46,6.23-12.44,10.52-19.85,10.66-4.26.09-10.38-1.15-15.33-7.5l-9.77-13.91c-5-7.48-2.98-17.64,4.51-22.64,3.63-2.42,7.98-3.29,12.26-2.44,4.27.85,7.96,3.31,10.39,6.93ZM257.57,123.06l-.68,1.02c-.07-.86-.19-1.71-.37-2.57-1.16-5.73-4.48-10.67-9.36-13.9-4.87-3.23-10.71-4.38-16.44-3.21-5.73,1.16-10.67,4.48-13.91,9.38l-33.71,51.81-.02.02c-5.84,9.19-14.52,14.33-24.44,14.44h-.34c-10.22,0-20.34-5.29-25.86-13.55l-28.97-43.36c-4.96-7.42-6.73-16.33-4.99-25.08,1.74-8.75,6.79-16.3,14.2-21.26,5.56-3.72,11.95-5.64,18.5-5.64,2.18,0,4.39.21,6.58.65.69.14,1.37.3,2.05.48,2,.6,1.96,1.99-.05,2.56-.08.02-.12.05-.18.06-2.04.6-4,1.5-5.81,2.7-4.67,3.12-7.83,7.87-8.93,13.37-1.09,5.51.02,11.1,3.17,15.81l9.84,14.01.07.09c6.15,7.92,13.8,9.45,19.16,9.35,8.96-.18,18.21-5.12,23.61-12.68l21.18-31.46c4.93-7.44,12.46-12.51,21.21-14.28,8.74-1.77,17.66-.03,25.09,4.89,7.44,4.93,12.51,12.46,14.28,21.21,1.78,8.76.04,17.67-4.89,25.11Z"/>
    </clipPath>
    <linearGradient id="Degradado_sin_nombre_2" data-name="Degradado sin nombre 2" x1="36.93" y1="59.22" x2="232.89" y2="59.22" gradientTransform="translate(98.3 6.76) rotate(32.74)" gradientUnits="userSpaceOnUse">
      <stop offset="0" stop-color="#5ae8ff"/>
      <stop offset="1" stop-color="#4857ff"/>
    </linearGradient>
    <clipPath id="clippath-6">
      <path class="cls-5" d="M267.07,97.03c-2.02-9.97-7.8-18.56-16.29-24.18-8.48-5.62-18.64-7.61-28.61-5.58-9.97,2.02-18.56,7.8-24.18,16.27l-17.09,25.39-17.95-25.5s-.02-.03-.03-.04c-5.65-8.44-14.25-14.17-24.21-16.16-9.98-1.99-20.14.04-28.6,5.69-8.46,5.65-14.21,14.26-16.2,24.25s.04,20.14,5.69,28.6l28.97,43.35c6.37,9.52,18.01,15.63,29.76,15.63h.39c11.55-.13,21.6-6.03,28.33-16.6l33.69-51.79c2.54-3.83,6.41-6.45,10.92-7.35,4.51-.92,9.09-.02,12.92,2.52,3.83,2.54,6.45,6.41,7.35,10.92.91,4.49.02,9.07-2.5,12.9l-.02.02,3.91,2.59h0l8.16-12.31c5.62-8.48,7.61-18.64,5.58-28.61ZM159.05,86.03l19.05,27.06-1.24,1.84c-4.46,6.23-12.44,10.52-19.85,10.66-4.26.09-10.38-1.15-15.33-7.5l-9.77-13.91c-5-7.48-2.98-17.64,4.51-22.64,3.63-2.42,7.98-3.29,12.26-2.44,4.27.85,7.96,3.31,10.39,6.93ZM257.57,123.06l-.68,1.02c-.07-.86-.19-1.71-.37-2.57-1.16-5.73-4.48-10.67-9.36-13.9-4.87-3.23-10.71-4.38-16.44-3.21-5.73,1.16-10.67,4.48-13.91,9.38l-33.71,51.81-.02.02c-5.84,9.19-14.52,14.33-24.44,14.44h-.34c-10.22,0-20.34-5.29-25.86-13.55l-28.97-43.36c-4.96-7.42-6.73-16.33-4.99-25.08,1.74-8.75,6.79-16.3,14.2-21.26,5.56-3.72,11.95-5.64,18.5-5.64,2.18,0,4.39.21,6.58.65.69.14,1.37.3,2.05.48,2,.6,1.96,1.99-.05,2.56-.08.02-.12.05-.18.06-2.04.6-4,1.5-5.81,2.7-4.67,3.12-7.83,7.87-8.93,13.37-1.09,5.51.02,11.1,3.17,15.81l9.84,14.01.07.09c6.15,7.92,13.8,9.45,19.16,9.35,8.96-.18,18.21-5.12,23.61-12.68l21.18-31.46c4.93-7.44,12.46-12.51,21.21-14.28,8.74-1.77,17.66-.03,25.09,4.89,7.44,4.93,12.51,12.46,14.28,21.21,1.78,8.76.04,17.67-4.89,25.11Z"/>
    </clipPath>
    <radialGradient id="Degradado_sin_nombre_7-2" data-name="Degradado sin nombre 7" cx="532.49" cy="214.68" fx="532.49" fy="214.68" r="50.41" gradientTransform="translate(90.76 -352.24) rotate(32.73) scale(.68 1.67)" xlink:href="#Degradado_sin_nombre_7"/>
    <clipPath id="clippath-7">
      <path class="cls-5" d="M267.07,97.03c-2.02-9.97-7.8-18.56-16.29-24.18-8.48-5.62-18.64-7.61-28.61-5.58-9.97,2.02-18.56,7.8-24.18,16.27l-17.09,25.39-17.95-25.5s-.02-.03-.03-.04c-5.65-8.44-14.25-14.17-24.21-16.16-9.98-1.99-20.14.04-28.6,5.69-8.46,5.65-14.21,14.26-16.2,24.25s.04,20.14,5.69,28.6l28.06,41.99h0l21.7,32.61c7.51,10.8,17.98,16.27,31.13,16.27s24.96-6.53,32-17.43l40.83-61.25h0l8.16-12.31c5.62-8.48,7.61-18.65,5.58-28.62ZM148.66,79.1c4.28.85,7.96,3.31,10.39,6.94l19.05,27.06-1.24,1.84c-4.46,6.23-12.44,10.52-19.85,10.66-4.26.09-10.38-1.15-15.33-7.5l-9.77-13.91c-5-7.48-2.98-17.64,4.51-22.64,3.63-2.43,7.98-3.3,12.26-2.44ZM208.57,196.64c-6.19,9.58-16.69,15.31-28.09,15.31s-20.6-4.67-27.25-14.23l-11.29-16.98c5.05,2.56,10.71,3.99,16.39,3.99h.39c11.55-.13,21.6-6.03,28.33-16.6l33.69-51.79c2.54-3.83,6.41-6.45,10.92-7.35,4.51-.92,9.09-.02,12.92,2.52,3.83,2.54,6.45,6.41,7.35,10.92.91,4.49.02,9.07-2.5,12.89l-.02.03h0l-40.83,61.28ZM257.57,123.06l-.68,1.02c-.07-.86-.19-1.71-.37-2.57-1.16-5.73-4.48-10.67-9.36-13.9-4.87-3.23-10.71-4.38-16.44-3.21-5.73,1.16-10.67,4.48-13.91,9.38l-33.71,51.81-.02.02c-5.84,9.19-14.52,14.33-24.44,14.44h-.34c-10.22,0-20.34-5.29-25.86-13.55l-28.97-43.36c-4.96-7.42-6.73-16.33-4.99-25.08,1.74-8.75,6.79-16.3,14.2-21.26,5.56-3.72,11.95-5.64,18.5-5.64,2.18,0,4.39.21,6.58.65.69.14,1.37.3,2.05.48,2,.6,1.96,1.99-.05,2.56-.08.02-.12.05-.18.06-2.04.6-4,1.5-5.81,2.7-4.67,3.12-7.83,7.87-8.93,13.37-1.09,5.51.02,11.1,3.17,15.81l9.84,14.01.07.09c6.15,7.92,13.8,9.45,19.16,9.35,8.96-.18,18.21-5.12,23.61-12.68l21.18-31.46c4.93-7.44,12.46-12.51,21.21-14.28,8.74-1.77,17.66-.03,25.09,4.89,7.44,4.93,12.51,12.46,14.28,21.21,1.78,8.76.04,17.67-4.89,25.11Z"/>
    </clipPath>
    <radialGradient id="Degradado_sin_nombre_10" data-name="Degradado sin nombre 10" cx="234.73" cy="556" fx="234.73" fy="556" r="42.12" gradientTransform="translate(0 -393.3)" gradientUnits="userSpaceOnUse">
      <stop offset="0" stop-color="#65f"/>
      <stop offset="1" stop-color="#4857ff" stop-opacity="0"/>
    </radialGradient>
    <clipPath id="clippath-8">
      <path class="cls-5" d="M267.07,97.03c-2.02-9.97-7.8-18.56-16.29-24.18-8.48-5.62-18.64-7.61-28.61-5.58-9.97,2.02-18.56,7.8-24.18,16.27l-17.09,25.39-17.95-25.5s-.02-.03-.03-.04c-5.65-8.44-14.25-14.17-24.21-16.16-9.98-1.99-20.14.04-28.6,5.69-8.46,5.65-14.21,14.26-16.2,24.25s.04,20.14,5.69,28.6l28.06,41.99h0l21.7,32.61c7.51,10.8,17.98,16.27,31.13,16.27s24.96-6.53,32-17.43l40.83-61.25h0l8.16-12.31c5.62-8.48,7.61-18.65,5.58-28.62ZM148.66,79.1c4.28.85,7.96,3.31,10.39,6.94l19.05,27.06-1.24,1.84c-4.46,6.23-12.44,10.52-19.85,10.66-4.26.09-10.38-1.15-15.33-7.5l-9.77-13.91c-5-7.48-2.98-17.64,4.51-22.64,3.63-2.43,7.98-3.3,12.26-2.44ZM208.57,196.64c-6.19,9.58-16.69,15.31-28.09,15.31s-20.6-4.67-27.25-14.23l-11.29-16.98c5.05,2.56,10.71,3.99,16.39,3.99h.39c11.55-.13,21.6-6.03,28.33-16.6l33.69-51.79c2.54-3.83,6.41-6.45,10.92-7.35,4.51-.92,9.09-.02,12.92,2.52,3.83,2.54,6.45,6.41,7.35,10.92.91,4.49.02,9.07-2.5,12.89l-.02.03h0l-40.83,61.28ZM257.57,123.06l-.68,1.02c-.07-.86-.19-1.71-.37-2.57-1.16-5.73-4.48-10.67-9.36-13.9-4.87-3.23-10.71-4.38-16.44-3.21-5.73,1.16-10.67,4.48-13.91,9.38l-33.71,51.81-.02.02c-5.84,9.19-14.52,14.33-24.44,14.44h-.34c-10.22,0-20.34-5.29-25.86-13.55l-28.97-43.36c-4.96-7.42-6.73-16.33-4.99-25.08,1.74-8.75,6.79-16.3,14.2-21.26,5.56-3.72,11.95-5.64,18.5-5.64,2.18,0,4.39.21,6.58.65.69.14,1.37.3,2.05.48,2,.6,1.96,1.99-.05,2.56-.08.02-.12.05-.18.06-2.04.6-4,1.5-5.81,2.7-4.67,3.12-7.83,7.87-8.93,13.37-1.09,5.51.02,11.1,3.17,15.81l9.84,14.01.07.09c6.15,7.92,13.8,9.45,19.16,9.35,8.96-.18,18.21-5.12,23.61-12.68l21.18-31.46c4.93-7.44,12.46-12.51,21.21-14.28,8.74-1.77,17.66-.03,25.09,4.89,7.44,4.93,12.51,12.46,14.28,21.21,1.78,8.76.04,17.67-4.89,25.11Z"/>
    </clipPath>
    <radialGradient id="Degradado_sin_nombre_9" data-name="Degradado sin nombre 9" cx="227.74" cy="464.48" fx="227.74" fy="464.48" r="52.52" gradientTransform="translate(0 -393.3)" gradientUnits="userSpaceOnUse">
      <stop offset="0" stop-color="#03ebff"/>
      <stop offset="1" stop-color="#05e5ff" stop-opacity="0"/>
    </radialGradient>
    <clipPath id="clippath-9">
      <path class="cls-5" d="M267.07,97.03c-2.02-9.97-7.8-18.56-16.29-24.18-8.48-5.62-18.64-7.61-28.61-5.58-9.97,2.02-18.56,7.8-24.18,16.27l-17.09,25.39-17.95-25.5s-.02-.03-.03-.04c-5.65-8.44-14.25-14.17-24.21-16.16-9.98-1.99-20.14.04-28.6,5.69-8.46,5.65-14.21,14.26-16.2,24.25s.04,20.14,5.69,28.6l28.06,41.99h0l21.7,32.61c7.51,10.8,17.98,16.27,31.13,16.27s24.96-6.53,32-17.43l40.83-61.25h0l8.16-12.31c5.62-8.48,7.61-18.65,5.58-28.62ZM148.66,79.1c4.28.85,7.96,3.31,10.39,6.94l19.05,27.06-1.24,1.84c-4.46,6.23-12.44,10.52-19.85,10.66-4.26.09-10.38-1.15-15.33-7.5l-9.77-13.91c-5-7.48-2.98-17.64,4.51-22.64,3.63-2.43,7.98-3.3,12.26-2.44ZM208.57,196.64c-6.19,9.58-16.69,15.31-28.09,15.31s-20.6-4.67-27.25-14.23l-11.29-16.98c5.05,2.56,10.71,3.99,16.39,3.99h.39c11.55-.13,21.6-6.03,28.33-16.6l33.69-51.79c2.54-3.83,6.41-6.45,10.92-7.35,4.51-.92,9.09-.02,12.92,2.52,3.83,2.54,6.45,6.41,7.35,10.92.91,4.49.02,9.07-2.5,12.89l-.02.03h0l-40.83,61.28ZM257.57,123.06l-.68,1.02c-.07-.86-.19-1.71-.37-2.57-1.16-5.73-4.48-10.67-9.36-13.9-4.87-3.23-10.71-4.38-16.44-3.21-5.73,1.16-10.67,4.48-13.91,9.38l-33.71,51.81-.02.02c-5.84,9.19-14.52,14.33-24.44,14.44h-.34c-10.22,0-20.34-5.29-25.86-13.55l-28.97-43.36c-4.96-7.42-6.73-16.33-4.99-25.08,1.74-8.75,6.79-16.3,14.2-21.26,5.56-3.72,11.95-5.64,18.5-5.64,2.18,0,4.39.21,6.58.65.69.14,1.37.3,2.05.48,2,.6,1.96,1.99-.05,2.56-.08.02-.12.05-.18.06-2.04.6-4,1.5-5.81,2.7-4.67,3.12-7.83,7.87-8.93,13.37-1.09,5.51.02,11.1,3.17,15.81l9.84,14.01.07.09c6.15,7.92,13.8,9.45,19.16,9.35,8.96-.18,18.21-5.12,23.61-12.68l21.18-31.46c4.93-7.44,12.46-12.51,21.21-14.28,8.74-1.77,17.66-.03,25.09,4.89,7.44,4.93,12.51,12.46,14.28,21.21,1.78,8.76.04,17.67-4.89,25.11Z"/>
    </clipPath>
    <radialGradient id="Degradado_sin_nombre_10-2" data-name="Degradado sin nombre 10" cx="161.92" cy="520.84" fx="161.92" fy="520.84" r="32.77" gradientTransform="translate(650.1 -115.72) rotate(80.78)" xlink:href="#Degradado_sin_nombre_10"/>
  </defs>
  <!-- Generator: Adobe Illustrator 28.7.4, SVG Export Plug-In . SVG Version: 1.2.0 Build 166)  -->
  <g>
    <g id="Layer_1">
      <g>
        <path class="cls-5" d="M267.07,97.03c-2.02-9.97-7.8-18.56-16.29-24.18-8.48-5.62-18.64-7.61-28.61-5.58-9.97,2.02-18.56,7.8-24.18,16.27l-17.09,25.39-17.95-25.5s-.02-.03-.03-.04c-5.65-8.44-14.25-14.17-24.21-16.16-9.98-1.99-20.14.04-28.6,5.69-8.46,5.65-14.21,14.26-16.2,24.25s.04,20.14,5.69,28.6l28.06,41.99h0l21.7,32.61c7.51,10.8,17.98,16.27,31.13,16.27s24.96-6.53,32-17.43l40.83-61.25h0l8.16-12.31c5.62-8.48,7.61-18.65,5.58-28.62ZM148.66,79.1c4.28.85,7.96,3.31,10.39,6.94l19.05,27.06-1.24,1.84c-4.46,6.23-12.44,10.52-19.85,10.66-4.26.09-10.38-1.15-15.33-7.5l-9.77-13.91c-5-7.48-2.98-17.64,4.51-22.64,3.63-2.43,7.98-3.3,12.26-2.44ZM208.57,196.64c-6.19,9.58-16.69,15.31-28.09,15.31s-20.6-4.67-27.25-14.23l-11.29-16.98c5.05,2.56,10.71,3.99,16.39,3.99h.39c11.55-.13,21.6-6.03,28.33-16.6l33.69-51.79c2.54-3.83,6.41-6.45,10.92-7.35,4.51-.92,9.09-.02,12.92,2.52,3.83,2.54,6.45,6.41,7.35,10.92.91,4.49.02,9.07-2.5,12.89l-.02.03h0l-40.83,61.28ZM257.57,123.06l-.68,1.02c-.07-.86-.19-1.71-.37-2.57-1.16-5.73-4.48-10.67-9.36-13.9-4.87-3.23-10.71-4.38-16.44-3.21-5.73,1.16-10.67,4.48-13.91,9.38l-33.71,51.81-.02.02c-5.84,9.19-14.52,14.33-24.44,14.44h-.34c-10.22,0-20.34-5.29-25.86-13.55l-28.97-43.36c-4.96-7.42-6.73-16.33-4.99-25.08,1.74-8.75,6.79-16.3,14.2-21.26,5.56-3.72,11.95-5.64,18.5-5.64,2.18,0,4.39.21,6.58.65.69.14,1.37.3,2.05.48,2,.6,1.96,1.99-.05,2.56-.08.02-.12.05-.18.06-2.04.6-4,1.5-5.81,2.7-4.67,3.12-7.83,7.87-8.93,13.37-1.09,5.51.02,11.1,3.17,15.81l9.84,14.01.07.09c6.15,7.92,13.8,9.45,19.16,9.35,8.96-.18,18.21-5.12,23.61-12.68l21.18-31.46c4.93-7.44,12.46-12.51,21.21-14.28,8.74-1.77,17.66-.03,25.09,4.89,7.44,4.93,12.51,12.46,14.28,21.21,1.78,8.76.04,17.67-4.89,25.11Z"/>
        <g class="cls-17">
          <circle class="cls-6" cx="179.76" cy="129.54" r="97.97"/>
        </g>
        <g class="cls-7">
          <path class="cls-14" d="M231.82,199.62c3.94,33.99-21.69,64.89-57.26,69.02-35.56,4.12-67.58-20.09-71.53-54.08-3.94-33.99,21.69-64.89,57.26-69.02,35.56-4.12,67.59,20.08,71.53,54.08Z"/>
        </g>
        <g class="cls-13">
          <circle class="cls-9" cx="179.76" cy="129.54" r="97.97"/>
        </g>
        <g class="cls-1">
          <path class="cls-16" d="M227.92,162.39c-25.15,39.13-58.37,62.61-74.19,52.45-15.81-10.16-8.24-50.13,16.91-89.26,25.15-39.13,58.37-62.61,74.19-52.45,15.81,10.16,8.25,50.13-16.91,89.26Z"/>
        </g>
        <g class="cls-2">
          <circle class="cls-15" cx="234.73" cy="162.7" r="42.12"/>
        </g>
        <g class="cls-11">
          <circle class="cls-12" cx="227.74" cy="71.18" r="52.52"/>
        </g>
        <g class="cls-8">
          <g class="cls-3">
            <circle class="cls-10" cx="161.92" cy="127.54" r="32.77" transform="translate(10.09 266.94) rotate(-80.78)"/>
          </g>
        </g>
      </g>
      <g>
        <polygon class="cls-4" points="80.66 249.48 87.49 249.48 96.28 274.29 105.19 249.48 112.02 249.48 99.44 284.4 93.03 284.4 80.66 249.48"/>
        <path class="cls-4" d="M127.52,257.91c2.44,0,4.73.61,6.87,1.83,2.14,1.22,3.82,2.87,5.02,4.96s1.8,4.34,1.8,6.77-.61,4.72-1.82,6.84c-1.21,2.12-2.86,3.78-4.95,4.97-2.09,1.19-4.39,1.79-6.91,1.79-3.7,0-6.86-1.32-9.48-3.95-2.62-2.64-3.93-5.84-3.93-9.6,0-4.03,1.48-7.4,4.44-10.09,2.6-2.34,5.58-3.51,8.95-3.51M127.62,264.01c-2.01,0-3.69.7-5.03,2.1-1.34,1.4-2.01,3.19-2.01,5.38s.66,4.07,1.99,5.46c1.32,1.39,3,2.09,5.03,2.09s3.72-.7,5.06-2.11c1.35-1.41,2.02-3.22,2.02-5.44s-.66-4.02-1.99-5.4c-1.32-1.38-3.02-2.08-5.08-2.08"/>
        <rect class="cls-4" x="149.54" y="248.6" width="6.48" height="35.8"/>
        <path class="cls-4" d="M170.67,247.94c1.14,0,2.11.41,2.92,1.23.81.82,1.22,1.82,1.22,2.99s-.4,2.14-1.21,2.96c-.8.82-1.77,1.22-2.89,1.22s-2.13-.42-2.95-1.25c-.81-.83-1.22-1.84-1.22-3.03s.4-2.11,1.21-2.92c.8-.81,1.77-1.21,2.91-1.21M167.43,258.57h6.48v25.83h-6.48v-25.83Z"/>
        <path class="cls-4" d="M186.04,258.57h6.48v2.65c1.47-1.24,2.8-2.1,3.99-2.58,1.19-.48,2.41-.73,3.66-.73,2.56,0,4.73.89,6.52,2.68,1.5,1.52,2.25,3.77,2.25,6.74v17.07h-6.41v-11.31c0-3.08-.14-5.13-.42-6.14-.28-1.01-.76-1.78-1.44-2.31-.69-.53-1.54-.79-2.55-.79-1.31,0-2.43.44-3.37,1.32-.94.88-1.59,2.09-1.95,3.64-.19.81-.28,2.55-.28,5.24v10.36h-6.48v-25.83Z"/>
        <path class="cls-4" d="M239.29,258.57h6.46v22.12c0,4.37-.88,7.58-2.64,9.64-2.36,2.79-5.91,4.18-10.66,4.18-2.53,0-4.66-.32-6.38-.95-1.73-.63-3.18-1.56-4.37-2.79-1.19-1.23-2.07-2.72-2.64-4.47h7.14c.63.73,1.45,1.28,2.45,1.65,1,.37,2.18.56,3.54.56,1.74,0,3.14-.27,4.2-.81,1.06-.54,1.81-1.23,2.24-2.09.44-.85.65-2.33.65-4.41-1.14,1.14-2.33,1.96-3.58,2.46-1.25.5-2.67.75-4.25.75-3.47,0-6.39-1.25-8.78-3.75-2.39-2.5-3.59-5.67-3.59-9.5,0-4.1,1.27-7.39,3.8-9.87,2.29-2.25,5.03-3.37,8.21-3.37,1.49,0,2.89.27,4.21.82,1.32.55,2.65,1.44,3.98,2.69v-2.85ZM232.58,263.96c-2.04,0-3.73.68-5.06,2.05-1.33,1.37-1.99,3.09-1.99,5.16s.68,3.92,2.04,5.29c1.36,1.38,3.07,2.07,5.13,2.07s3.67-.67,4.97-2.02,1.96-3.11,1.96-5.29-.66-3.9-1.97-5.25c-1.31-1.34-3.01-2.02-5.08-2.02"/>
        <path class="cls-4" d="M273.86,258.57h6.48v25.83h-6.48v-2.73c-1.26,1.2-2.53,2.07-3.81,2.6-1.27.53-2.65.8-4.14.8-3.34,0-6.22-1.29-8.66-3.88-2.43-2.59-3.65-5.8-3.65-9.65s1.18-7.26,3.53-9.8c2.36-2.55,5.22-3.82,8.58-3.82,1.55,0,3,.29,4.36.88,1.36.59,2.62,1.46,3.77,2.63v-2.85ZM267.04,263.89c-2,0-3.67.71-4.99,2.12-1.33,1.42-1.99,3.23-1.99,5.45s.67,4.07,2.02,5.51c1.35,1.44,3.01,2.16,4.98,2.16s3.72-.71,5.06-2.12c1.34-1.42,2.01-3.27,2.01-5.57s-.67-4.07-2.01-5.46c-1.34-1.39-3.04-2.09-5.09-2.09"/>
      </g>
    </g>
  </g>
</svg>
